<svg width="60" height="60" viewBox="0 0 60 60" fill="none" xmlns="http://www.w3.org/2000/svg">
<rect x="1" y="1" width="58" height="58" rx="29" stroke="#0D101C" stroke-width="2"/>
<path d="M37.0535 21.4189C37.721 21.6955 38.3274 22.1008 38.8382 22.6118C39.3492 23.1226 39.7545 23.729 40.0311 24.3965C40.3076 25.0639 40.45 25.7793 40.45 26.5018C40.45 27.2243 40.3076 27.9397 40.0311 28.6072C39.7545 29.2746 39.3492 29.8811 38.8382 30.3918L37.7782 31.4518L29.9982 39.2318L22.2182 31.4518L21.1582 30.3918C20.1265 29.3601 19.5469 27.9609 19.5469 26.5018C19.5469 25.0428 20.1265 23.6435 21.1582 22.6118C22.1899 21.5801 23.5891 21.0005 25.0482 21.0005C26.5072 21.0005 27.9065 21.5801 28.9382 22.6118L29.9982 23.6718L31.0582 22.6118C31.5689 22.1008 32.1754 21.6955 32.8428 21.4189C33.5103 21.1423 34.2257 21 34.9482 21C35.6707 21 36.3861 21.1423 37.0535 21.4189Z" stroke="black" stroke-width="2" stroke-linecap="round" stroke-linejoin="round"/>
</svg>
